<svg xmlns="http://www.w3.org/2000/svg" width="500" height="500" viewBox="-250 -250 500 500">
<line x1="200.0" y1="0.0" x2="200.0" y2="0.0" stroke="gray" stroke-width="1.8256946950559365" opacity="0.6"/>
<line x1="153.20888862379562" y1="128.55752193730785" x2="153.20888862379562" y2="128.55752193730785" stroke="gray" stroke-width="2.2443161313605198" opacity="0.6"/>
<line x1="153.20888862379562" y1="128.55752193730785" x2="34.729635533385995" y2="-196.96155060244163" stroke="gray" stroke-width="1.0014435221941538" opacity="0.6"/>
<line x1="153.20888862379562" y1="128.55752193730785" x2="0" y2="0" stroke="gray" stroke-width="1.0043305665824611" opacity="0.6"/>
<line x1="34.72963553338608" y1="196.9615506024416" x2="34.72963553338608" y2="196.9615506024416" stroke="gray" stroke-width="1.7982677733670154" opacity="0.6"/>
<line x1="-99.99999999999996" y1="173.20508075688775" x2="-99.99999999999996" y2="173.20508075688775" stroke="gray" stroke-width="3.0728978708047636" opacity="0.6"/>
<line x1="-99.99999999999996" y1="173.20508075688775" x2="0" y2="0" stroke="gray" stroke-width="1.0014435221941538" opacity="0.6"/>
<line x1="-187.93852415718166" y1="68.40402866513378" x2="-187.93852415718166" y2="68.40402866513378" stroke="gray" stroke-width="1.991699747383616" opacity="0.6"/>
<line x1="-187.93852415718166" y1="68.40402866513378" x2="0" y2="0" stroke="gray" stroke-width="1.038975099242151" opacity="0.6"/>
<line x1="-187.9385241571817" y1="-68.40402866513374" x2="-187.9385241571817" y2="-68.40402866513374" stroke="gray" stroke-width="1.8213641284734754" opacity="0.6"/>
<line x1="-187.9385241571817" y1="-68.40402866513374" x2="0" y2="0" stroke="gray" stroke-width="1.0014435221941538" opacity="0.6"/>
<line x1="-100.00000000000009" y1="-173.20508075688767" x2="-100.00000000000009" y2="-173.20508075688767" stroke="gray" stroke-width="2.4031035727174306" opacity="0.6"/>
<line x1="-100.00000000000009" y1="-173.20508075688767" x2="0" y2="0" stroke="gray" stroke-width="1.0014435221941538" opacity="0.6"/>
<line x1="34.729635533385995" y1="-196.96155060244163" x2="34.729635533385995" y2="-196.96155060244163" stroke="gray" stroke-width="3.28798267773367" opacity="0.6"/>
<line x1="34.729635533385995" y1="-196.96155060244163" x2="153.20888862379556" y2="-128.5575219373079" stroke="gray" stroke-width="1.0014435221941538" opacity="0.6"/>
<line x1="34.729635533385995" y1="-196.96155060244163" x2="153.20888862379562" y2="128.55752193730785" stroke="gray" stroke-width="1.0014435221941538" opacity="0.6"/>
<line x1="34.729635533385995" y1="-196.96155060244163" x2="0" y2="0" stroke="gray" stroke-width="1.0014435221941538" opacity="0.6"/>
<line x1="34.729635533385995" y1="-196.96155060244163" x2="0" y2="0" stroke="gray" stroke-width="1.0101046553590762" opacity="0.6"/>
<line x1="34.729635533385995" y1="-196.96155060244163" x2="0" y2="0" stroke="gray" stroke-width="1.0028870443883076" opacity="0.6"/>
<line x1="34.729635533385995" y1="-196.96155060244163" x2="0" y2="0" stroke="gray" stroke-width="1.0014435221941538" opacity="0.6"/>
<line x1="34.729635533385995" y1="-196.96155060244163" x2="0" y2="0" stroke="gray" stroke-width="1.0014435221941538" opacity="0.6"/>
<line x1="34.729635533385995" y1="-196.96155060244163" x2="0" y2="0" stroke="gray" stroke-width="1.0014435221941538" opacity="0.6"/>
<line x1="153.20888862379556" y1="-128.5575219373079" x2="153.20888862379556" y2="-128.5575219373079" stroke="gray" stroke-width="5.0" opacity="0.6"/>
<line x1="153.20888862379556" y1="-128.5575219373079" x2="34.729635533385995" y2="-196.96155060244163" stroke="gray" stroke-width="1.0014435221941538" opacity="0.6"/>
<line x1="153.20888862379556" y1="-128.5575219373079" x2="0" y2="0" stroke="gray" stroke-width="1.017322266329845" opacity="0.6"/>
<line x1="153.20888862379556" y1="-128.5575219373079" x2="0" y2="0" stroke="gray" stroke-width="1.017322266329845" opacity="0.6"/>
<line x1="153.20888862379556" y1="-128.5575219373079" x2="0" y2="0" stroke="gray" stroke-width="1.0101046553590762" opacity="0.6"/>
<line x1="153.20888862379556" y1="-128.5575219373079" x2="0" y2="0" stroke="gray" stroke-width="1.0014435221941538" opacity="0.6"/>
<line x1="153.20888862379556" y1="-128.5575219373079" x2="0" y2="0" stroke="gray" stroke-width="1.0230963551064598" opacity="0.6"/>
<line x1="153.20888862379556" y1="-128.5575219373079" x2="0" y2="0" stroke="gray" stroke-width="1.0028870443883076" opacity="0.6"/>
<line x1="153.20888862379556" y1="-128.5575219373079" x2="0" y2="0" stroke="gray" stroke-width="1.017322266329845" opacity="0.6"/>
<line x1="153.20888862379556" y1="-128.5575219373079" x2="0" y2="0" stroke="gray" stroke-width="1.0014435221941538" opacity="0.6"/>
<circle cx="200.0" cy="0.0" r="9.072623709505162" fill="skyblue" stroke="black"/>
<text x="200.0" y="0.0" text-anchor="middle" dy="4" font-size="12">赛飞儿</text>
<circle cx="153.20888862379562" cy="128.55752193730785" r="11.1374154503382" fill="skyblue" stroke="black"/>
<text x="153.20888862379562" y="128.55752193730785" text-anchor="middle" dy="4" font-size="12">风堇</text>
<circle cx="34.72963553338608" cy="196.9615506024416" r="8.937344250622997" fill="skyblue" stroke="black"/>
<text x="34.72963553338608" y="196.9615506024416" text-anchor="middle" dy="4" font-size="12">那刻夏</text>
<circle cx="-99.99999999999996" cy="173.20508075688775" r="15.224279102883589" fill="skyblue" stroke="black"/>
<text x="-99.99999999999996" y="173.20508075688775" text-anchor="middle" dy="4" font-size="12">遐蝶</text>
<circle cx="-187.93852415718166" cy="68.40402866513378" r="10.083659665361338" fill="skyblue" stroke="black"/>
<text x="-187.93852415718166" y="68.40402866513378" text-anchor="middle" dy="4" font-size="12">万敌</text>
<circle cx="-187.9385241571817" cy="-68.40402866513374" r="9.05126379494482" fill="skyblue" stroke="black"/>
<text x="-187.9385241571817" y="-68.40402866513374" text-anchor="middle" dy="4" font-size="12">缇宝</text>
<circle cx="-100.00000000000009" cy="-173.20508075688767" r="11.92061231755073" fill="skyblue" stroke="black"/>
<text x="-100.00000000000009" y="-173.20508075688767" text-anchor="middle" dy="4" font-size="12">阿格莱雅</text>
<circle cx="34.729635533385995" cy="-196.96155060244163" r="16.342114631541474" fill="skyblue" stroke="black"/>
<text x="34.729635533385995" y="-196.96155060244163" text-anchor="middle" dy="4" font-size="12">丹恒</text>
<circle cx="153.20888862379556" cy="-128.5575219373079" r="25.0" fill="skyblue" stroke="black"/>
<text x="153.20888862379556" y="-128.5575219373079" text-anchor="middle" dy="4" font-size="12">开拓者</text>
</svg>
